<svg xmlns="http://www.w3.org/2000/svg" version="1.1" xmlns:xlink="http://www.w3.org/1999/xlink" width="512" height="512" x="0" y="0" viewBox="0 0 60 60" style="enable-background:new 0 0 512 512" xml:space="preserve"><g><path d="M28 7v46c0 .55-.45 1-1 1h-6c-.55 0-1-.45-1-1V7c0-.55.45-1 1-1h6c.55 0 1 .45 1 1zM40 21v32c0 .55-.45 1-1 1h-6c-.55 0-1-.45-1-1V21c0-.55.45-1 1-1h6c.55 0 1 .45 1 1zM16 31v22c0 .55-.45 1-1 1H9c-.55 0-1-.45-1-1V31c0-.55.45-1 1-1h6c.55 0 1 .45 1 1zM52 7v46c0 .55-.45 1-1 1h-6c-.55 0-1-.45-1-1V7c0-.55.45-1 1-1h6c.55 0 1 .45 1 1z" fill="#babac0" opacity="1" data-original="#000000"></path></g></svg>