<svg width="20" height="20" viewBox="0 0 20 20" fill="none" xmlns="http://www.w3.org/2000/svg">
<path fill-rule="evenodd" clip-rule="evenodd" d="M16.0013 9C16.0013 5.93 14.3612 3.36 11.5013 2.68V2C11.5013 1.17 10.8313 0.5 10.0013 0.5C9.17125 0.5 8.50125 1.17 8.50125 2V2.68C5.63125 3.36 4.00125 5.92 4.00125 9V14L2.00125 16V17H18.0012V16L16.0013 14V9ZM4.15125 0.65L5.58125 2.08C3.54125 3.53 2.18125 5.85 2.03125 8.5H0.03125C0.17125 5.3 1.75125 2.48 4.15125 0.65ZM19.9712 8.5H17.9712C17.8212 5.85 16.4513 3.53 14.4312 2.08L15.8512 0.65C18.2412 2.48 19.8212 5.3 19.9712 8.5ZM10.4012 19.96C10.2712 19.99 10.1413 20 10.0013 20C8.89125 20 8.00125 19.1 7.99125 18H11.9913C11.9913 18.28 11.9412 18.54 11.8412 18.78C11.5813 19.38 11.0513 19.82 10.4012 19.96Z" fill="#E30613"/>
</svg>
