<svg width="21" height="20" viewBox="0 0 21 20" fill="none" xmlns="http://www.w3.org/2000/svg">
<path fill-rule="evenodd" id="_26._Notification" data-name="26. Notification" clip-rule="evenodd" d="M16.6692 9C16.6692 5.93 15.0292 3.36 12.1692 2.68V2C12.1692 1.17 11.4992 0.5 10.6692 0.5C9.83922 0.5 9.16922 1.17 9.16922 2V2.68C6.29922 3.36 4.66922 5.92 4.66922 9V14L2.66922 16V17H18.6692V16L16.6692 14V9ZM4.81922 0.65L6.24922 2.08C4.20922 3.53 2.84922 5.85 2.69922 8.5H0.699219C0.839219 5.3 2.41922 2.48 4.81922 0.65ZM20.6392 8.5H18.6392C18.4892 5.85 17.1192 3.53 15.0992 2.08L16.5192 0.65C18.9092 2.48 20.4892 5.3 20.6392 8.5ZM11.0692 19.96C10.9392 19.99 10.8092 20 10.6692 20C9.55922 20 8.66922 19.1 8.65922 18H12.6592C12.6592 18.28 12.6092 18.54 12.5092 18.78C12.2492 19.38 11.7192 19.82 11.0692 19.96Z" fill="#313131"/>
</svg>