<svg xmlns="http://www.w3.org/2000/svg" width="244.14" height="40" viewBox="0 0 244.14 40">
  <g id="Group_28320" data-name="Group 28320" transform="translate(-8072 1044)">
    <rect id="Rectangle_19021" data-name="Rectangle 19021" width="40" height="40" rx="4" transform="translate(8072 -1044)" fill="rgba(210,53,51,0.1)"/>
    <path id="Path_25675" data-name="Path 25675" d="M9.542.195H4.259L3.255,3H.051L5.495-10.623H8.287L13.76,3h-3.2ZM5.073-2.079H8.728L6.891-7.18Zm21.321.543a4.7,4.7,0,0,1-1.742,3.463,6.414,6.414,0,0,1-4.143,1.263,5.693,5.693,0,0,1-4.424-1.764,6.909,6.909,0,0,1-1.612-4.843V-4.25a7.692,7.692,0,0,1,.743-3.463,5.316,5.316,0,0,1,2.124-2.3,6.285,6.285,0,0,1,3.209-.8,6.244,6.244,0,0,1,4.077,1.263A5.05,5.05,0,0,1,26.414-6H23.4a2.745,2.745,0,0,0-.788-1.914,3.062,3.062,0,0,0-2.064-.594A2.629,2.629,0,0,0,18.294-7.5a5.335,5.335,0,0,0-.768,3.121v1.029a5.7,5.7,0,0,0,.718,3.229A2.577,2.577,0,0,0,20.509.9,3.121,3.121,0,0,0,22.593.3a2.594,2.594,0,0,0,.788-1.839ZM39.089-8.349H34.609V3H31.6V-8.349H27.178v-2.274H39.089ZM44.01,3H41V-10.623H44.01ZM52.2-.376l3.314-10.247h3.354L53.782,3H50.638L45.566-10.623h3.344ZM69.047-2.9H63.262V.747h6.789V3h-9.8V-10.623h9.782v2.274H63.262V-5.1h5.785Z" transform="translate(8119.949 -1020.189)" fill="#ffca3b"/>
    <path id="Path_25674" data-name="Path 25674" d="M9.52-2.9H3.886V.747H10.5V3H.952V-10.623h9.526v2.274H3.886V-5.1H9.52ZM23.4-1.536a4.742,4.742,0,0,1-1.7,3.463,6.135,6.135,0,0,1-4.035,1.263,5.472,5.472,0,0,1-4.308-1.764,7.026,7.026,0,0,1-1.57-4.843V-4.25a7.866,7.866,0,0,1,.724-3.463,5.264,5.264,0,0,1,2.069-2.3,6,6,0,0,1,3.125-.8,5.974,5.974,0,0,1,3.971,1.263A5.1,5.1,0,0,1,23.419-6H20.484a2.781,2.781,0,0,0-.768-1.914,2.928,2.928,0,0,0-2.01-.594,2.534,2.534,0,0,0-2.2,1.006,5.446,5.446,0,0,0-.748,3.121v1.029a5.82,5.82,0,0,0,.7,3.229A2.485,2.485,0,0,0,17.667.9,2.984,2.984,0,0,0,19.7.3a2.626,2.626,0,0,0,.768-1.839ZM37.024-3.5A7.922,7.922,0,0,1,36.28.026a5.436,5.436,0,0,1-2.127,2.34,6.087,6.087,0,0,1-3.174.824,6.129,6.129,0,0,1-3.159-.814A5.5,5.5,0,0,1,25.668.05,7.7,7.7,0,0,1,24.9-3.427V-4.1a7.882,7.882,0,0,1,.758-3.542A5.482,5.482,0,0,1,27.8-9.992a6.1,6.1,0,0,1,3.164-.819,6.1,6.1,0,0,1,3.164.819,5.482,5.482,0,0,1,2.142,2.349,7.86,7.86,0,0,1,.758,3.533ZM34.05-4.119a5.54,5.54,0,0,0-.8-3.257A2.651,2.651,0,0,0,30.959-8.49a2.653,2.653,0,0,0-2.279,1.1,5.478,5.478,0,0,0-.812,3.224V-3.5a5.609,5.609,0,0,0,.8,3.238A2.641,2.641,0,0,0,30.979.887,2.62,2.62,0,0,0,33.248-.222a5.577,5.577,0,0,0,.8-3.233Zm8.94-6.5L46.648-.741l3.638-9.882H54.14V3H51.2V-.722l.293-6.429L47.645,3H45.631L41.8-7.142l.293,6.42V3H39.156V-10.623Zm17.547,0L64.194-.741l3.638-9.882h3.854V3H68.743V-.722l.293-6.429L65.192,3H63.177L59.343-7.142l.293,6.42V3H56.7V-10.623ZM82.817-2.9H77.183V.747H83.8V3H74.249V-10.623h9.526v2.274H77.183V-5.1h5.634Zm7.971.917H88.451V3H85.516V-10.623h5.291A6.173,6.173,0,0,1,94.7-9.547,3.645,3.645,0,0,1,96.07-6.506a4.054,4.054,0,0,1-.631,2.326A4.268,4.268,0,0,1,93.527-2.7l3.081,5.568V3H93.458ZM88.451-4.26h2.367A2.494,2.494,0,0,0,92.529-4.8a1.881,1.881,0,0,0,.606-1.483A2.008,2.008,0,0,0,92.564-7.8a2.445,2.445,0,0,0-1.756-.552H88.451Zm21.029,2.723a4.742,4.742,0,0,1-1.7,3.463,6.135,6.135,0,0,1-4.035,1.263,5.472,5.472,0,0,1-4.308-1.764,7.026,7.026,0,0,1-1.57-4.843V-4.25a7.866,7.866,0,0,1,.724-3.463,5.264,5.264,0,0,1,2.069-2.3,6,6,0,0,1,3.125-.8,5.974,5.974,0,0,1,3.971,1.263A5.1,5.1,0,0,1,109.5-6h-2.934a2.781,2.781,0,0,0-.768-1.914,2.928,2.928,0,0,0-2.01-.594,2.534,2.534,0,0,0-2.2,1.006,5.445,5.445,0,0,0-.748,3.121v1.029a5.82,5.82,0,0,0,.7,3.229A2.485,2.485,0,0,0,103.748.9,2.984,2.984,0,0,0,105.777.3a2.626,2.626,0,0,0,.768-1.839ZM119.974-2.9H114.34V.747h6.612V3h-9.546V-10.623h9.526v2.274H114.34V-5.1h5.634Z" transform="translate(8195.048 -1020.189)" fill="#d23533"/>
    <g id="Group_23840" data-name="Group 23840">
      <path id="Path_25662" data-name="Path 25662" d="M201.681,126.536a1.125,1.125,0,0,0-1.121-1.035H187.44a1.125,1.125,0,0,0-1.121,1.035L185,143.036a1.125,1.125,0,0,0,1.032,1.211c.03,0,.059,0,.089,0h15.75A1.125,1.125,0,0,0,203,143.125c0-.03,0-.059,0-.09Z" transform="translate(7898 -1157.25)" fill="#d23533"/>
      <g id="CIRCLE" transform="translate(8086.75 -1030.25)">
        <path id="Path_25676" data-name="Path 25676" d="M192.5,129.625a1.125,1.125,0,1,1,1.125,1.125,1.125,1.125,0,0,1-1.125-1.125Z" transform="translate(-192.5 -128.5)" fill="#fff" stroke="rgba(0,0,0,0)" stroke-miterlimit="10" stroke-width="1"/>
      </g>
      <g id="CIRCLE-2" data-name="CIRCLE" transform="translate(8095 -1030.25)">
        <path id="Path_25677" data-name="Path 25677" d="M209,129.625a1.125,1.125,0,1,1,1.125,1.125A1.125,1.125,0,0,1,209,129.625Z" transform="translate(-209 -128.5)" fill="#fff" stroke="rgba(0,0,0,0)" stroke-miterlimit="10" stroke-width="1"/>
      </g>
      <g id="Group_22071" data-name="Group 22071" transform="translate(8087.313 -1026.125)">
        <g id="LWPOLYLINE" transform="translate(0 3.19)">
          <path id="Path_25678" data-name="Path 25678" d="M194,143.129a.375.375,0,0,0,0,.751h1.313a.375.375,0,0,0,0-.751Z" transform="translate(-193.625 -143.129)" fill="#fff" stroke="rgba(0,0,0,0)" stroke-miterlimit="10" stroke-width="1"/>
        </g>
        <g id="LWPOLYLINE-2" data-name="LWPOLYLINE" transform="translate(3.15)">
          <path id="Path_25679" data-name="Path 25679" d="M199.926,137.125a.375.375,0,0,1,.75,0v1.313a.375.375,0,0,1-.75,0Z" transform="translate(-199.926 -136.75)" fill="#fff" stroke="rgba(0,0,0,0)" stroke-miterlimit="10" stroke-width="1"/>
        </g>
        <g id="LWPOLYLINE-3" data-name="LWPOLYLINE" transform="translate(4.507 0.925)">
          <path id="Path_25680" data-name="Path 25680" d="M204.208,139.241a.375.375,0,0,0-.531-.53l-.928.928a.375.375,0,0,0,.531.531Z" transform="translate(-202.638 -138.6)" fill="#fff" stroke="rgba(0,0,0,0)" stroke-miterlimit="10" stroke-width="1"/>
        </g>
        <g id="LWPOLYLINE-4" data-name="LWPOLYLINE" transform="translate(0.944 0.925)">
          <path id="Path_25681" data-name="Path 25681" d="M195.622,139.241a.375.375,0,0,1,.531-.53l.928.928a.375.375,0,0,1-.53.531Z" transform="translate(-195.512 -138.6)" fill="#fff" stroke="rgba(0,0,0,0)" stroke-miterlimit="10" stroke-width="1"/>
        </g>
        <g id="LWPOLYLINE-5" data-name="LWPOLYLINE" transform="translate(0.944 4.525)">
          <path id="Path_25682" data-name="Path 25682" d="M195.622,146.839a.375.375,0,0,0,.531.531l.928-.929a.375.375,0,0,0-.53-.531Z" transform="translate(-195.512 -145.8)" fill="#fff" stroke="rgba(0,0,0,0)" stroke-miterlimit="10" stroke-width="1"/>
        </g>
        <path id="Path_25683" data-name="Path 25683" d="M205.844,147.376l-1.613-1.613.743-.406a.375.375,0,0,0-.037-.676l-4.888-2a.375.375,0,0,0-.489.489l2,4.888a.375.375,0,0,0,.676.038l.405-.744,1.613,1.612a.376.376,0,0,0,.531,0l1.061-1.061A.376.376,0,0,0,205.844,147.376Zm-1.329.786-1.7-1.7a.375.375,0,0,0-.595.085l-.267.491-1.36-3.328,3.327,1.36-.49.267a.375.375,0,0,0-.15.509.4.4,0,0,0,.064.086l1.7,1.7Z" transform="translate(-196.579 -139.703)" fill="#fff" stroke="rgba(0,0,0,0)" stroke-miterlimit="10" stroke-width="1"/>
      </g>
      <path id="Path_25665" data-name="Path 25665" d="M202.063,119.5v.75H203v-.75a4.5,4.5,0,0,0-9,0v.75h.938v-.75a3.563,3.563,0,0,1,7.125,0Z" transform="translate(7893.5 -1152)" fill="#d23533"/>
    </g>
    <path id="Path_40781" data-name="Path 40781" d="M-50.98.03a6.523,6.523,0,0,0,.515-1.11q.215-.6.44-1.235t.5-1.275a7.938,7.938,0,0,1,.675-1.245,6.467,6.467,0,0,1,.975-1.145,5.98,5.98,0,0,1,1.405-.96l-.02-.02a5.873,5.873,0,0,0-1.49.82,9.166,9.166,0,0,0-1.195,1.08,11.535,11.535,0,0,0-.91,1.11q-.385.54-.645.91-.49.7-.925,1.275a7.432,7.432,0,0,1-.88.985,3.6,3.6,0,0,1-.935.635A2.631,2.631,0,0,1-54.58.08,1.729,1.729,0,0,1-55.11,0a1.388,1.388,0,0,1-.445-.235,1.145,1.145,0,0,1-.31-.38,1.139,1.139,0,0,1-.115-.525.808.808,0,0,1,.19-.53.617.617,0,0,1,.5-.23.62.62,0,0,1,.435.16.566.566,0,0,1,.175.44.579.579,0,0,1-.12.365.452.452,0,0,1-.33.175.7.7,0,0,0,.23.49.784.784,0,0,0,.5.15,2.08,2.08,0,0,0,1.06-.29,4.614,4.614,0,0,0,.985-.79,11.633,11.633,0,0,0,.985-1.175q.5-.675,1.05-1.445a14.177,14.177,0,0,1,.915-1.16,8.609,8.609,0,0,1,1.02-.985,7.7,7.7,0,0,1,1.175-.79,6.916,6.916,0,0,1,1.38-.565l.08.12a3.029,3.029,0,0,0-.955.725,5.059,5.059,0,0,0-.65.96A9.716,9.716,0,0,0-47.85-4.4q-.22.59-.48,1.21a12.05,12.05,0,0,1-.6,1.235,6.244,6.244,0,0,1-.885,1.2l.02.02q.38-.34.71-.67t.7-.755q.37-.425.815-.99T-46.54-4.51a10.611,10.611,0,0,1,.925-1.085A6.211,6.211,0,0,1-44.58-6.45a4.986,4.986,0,0,1,1.17-.565,4.178,4.178,0,0,1,1.32-.205,1.742,1.742,0,0,1,.51.05.177.177,0,0,1,.14.17q0,.06-.085.11a.441.441,0,0,1-.225.05,1.612,1.612,0,0,1-.28-.02l-.22-.04a1.761,1.761,0,0,0-.2-.04,1.491,1.491,0,0,0-.235-.02.694.694,0,0,0-.39.16,2.231,2.231,0,0,0-.45.465,5.865,5.865,0,0,0-.465.74,8.653,8.653,0,0,0-.445.975q-.33.87-.645,1.565A7.075,7.075,0,0,1-45.79-1.81a4.69,4.69,0,0,1-.94.965,5.527,5.527,0,0,1-1.31.725V-.1h.02a7.045,7.045,0,0,0,1.14-.1A4.193,4.193,0,0,0-45.8-.52a3.707,3.707,0,0,0,1.04-.735A6.815,6.815,0,0,0-43.71-2.66l.09.03a8.1,8.1,0,0,1-.87,1.24,3.936,3.936,0,0,1-.93.79,3.646,3.646,0,0,1-.765.345,4.921,4.921,0,0,1-.77.18,6.122,6.122,0,0,1-.69.065Q-47.96,0-48.16,0a1,1,0,0,0-.175.015l-.18.03Q-48.61.06-48.73.07t-.3.01q-.31,0-.31-.16,0-.18.26-.18a1.127,1.127,0,0,1,.2.02q.11.02.22.05t.21.05a.89.89,0,0,0,.17.02.564.564,0,0,0,.42-.23,3.224,3.224,0,0,0,.405-.625q.2-.395.425-.915t.49-1.09q.27-.57.6-1.16A9.005,9.005,0,0,1-45.2-5.265a6.865,6.865,0,0,1,.935-.985,4.546,4.546,0,0,1,1.16-.73L-43.12-7a3.938,3.938,0,0,0-1,.4,6.12,6.12,0,0,0-.91.635,7.814,7.814,0,0,0-.84.825q-.405.46-.785.98t-.87,1.15q-.49.63-1.04,1.23A12.463,12.463,0,0,1-49.7-.685,4.708,4.708,0,0,1-50.86.06Zm8.846-3.71-.35.54q-.48.72-.77,1.175t-.45.74a2.673,2.673,0,0,0-.21.44.91.91,0,0,0-.05.275.3.3,0,0,0,.075.21.255.255,0,0,0,.195.08.978.978,0,0,0,.515-.225,4.189,4.189,0,0,0,.69-.655,10.964,10.964,0,0,0,.8-1.05,14.1,14.1,0,0,0,.83-1.41l1.45-.04q-.09.15-.255.4t-.37.545q-.2.3-.42.625t-.39.635a5.036,5.036,0,0,0-.285.57,1.2,1.2,0,0,0-.11.435.257.257,0,0,0,.06.2.228.228,0,0,0,.16.055.777.777,0,0,0,.4-.14,3.665,3.665,0,0,0,.48-.365q.255-.225.52-.5t.5-.56q.235-.28.435-.53t.32-.41l.09.08q-.17.2-.39.475t-.475.575q-.255.3-.54.595a5.3,5.3,0,0,1-.585.525,3.39,3.39,0,0,1-.605.375,1.4,1.4,0,0,1-.6.145.943.943,0,0,1-.38-.07.693.693,0,0,1-.26-.19.816.816,0,0,1-.15-.275,1.02,1.02,0,0,1-.05-.315.986.986,0,0,1,.03-.24,1.882,1.882,0,0,1,.06-.2l-.02-.02q-.22.25-.45.485a4.01,4.01,0,0,1-.48.42,2.489,2.489,0,0,1-.51.295,1.349,1.349,0,0,1-.53.11.754.754,0,0,1-.62-.245.956.956,0,0,1-.2-.625,1.387,1.387,0,0,1,.09-.455,4.7,4.7,0,0,1,.23-.535q.14-.28.315-.57t.335-.545q.16-.255.3-.46t.2-.325Zm7.476-3.38q-1,1.66-1.71,2.81t-1.165,1.925q-.455.775-.67,1.23a1.836,1.836,0,0,0-.215.725.22.22,0,0,0,.065.17.209.209,0,0,0,.145.06,1.078,1.078,0,0,0,.58-.255A5.981,5.981,0,0,0-36.9-1.03a10.777,10.777,0,0,0,.725-.815,9.147,9.147,0,0,0,.58-.795l.08.04q-.07.1-.23.34t-.4.545q-.24.3-.535.625a6.444,6.444,0,0,1-.62.59,3.6,3.6,0,0,1-.67.445,1.5,1.5,0,0,1-.685.175.856.856,0,0,1-.63-.21.718.718,0,0,1-.21-.53,1.694,1.694,0,0,1,.07-.465,4.115,4.115,0,0,1,.225-.58q.155-.335.41-.79t.63-1.085q.375-.63.88-1.47t1.155-1.95Zm-1.564,3.7.07-.16h.83l.85-1.45,1.39-.05-.9,1.5h1.37l-.08.16h-1.38q-.14.24-.385.63t-.485.81q-.24.42-.42.81a1.619,1.619,0,0,0-.18.64.309.309,0,0,0,.1.25.4.4,0,0,0,.265.08,1.233,1.233,0,0,0,.55-.145,3.51,3.51,0,0,0,.585-.375,5.448,5.448,0,0,0,.57-.515q.275-.285.52-.565t.445-.525q.2-.245.32-.395l.08.04q-.34.4-.72.88a8.369,8.369,0,0,1-.82.895,4.483,4.483,0,0,1-.95.69,2.3,2.3,0,0,1-1.11.275A.886.886,0,0,1-36.4-.125a.9.9,0,0,1-.225-.635,1.448,1.448,0,0,1,.055-.395,2.959,2.959,0,0,1,.195-.48q.14-.285.37-.695t.59-1.03Zm5.656-.24q-.32.51-.63.99t-.55.9q-.24.415-.385.735a1.334,1.334,0,0,0-.145.51.5.5,0,0,0,.05.235.185.185,0,0,0,.18.095.841.841,0,0,0,.435-.145,3.412,3.412,0,0,0,.485-.37,6.072,6.072,0,0,0,.5-.51q.25-.285.47-.56t.4-.52q.175-.245.285-.395l.08.03q-.24.34-.6.825a9.164,9.164,0,0,1-.81.945,4.83,4.83,0,0,1-.85.715,1.6,1.6,0,0,1-.87.245.788.788,0,0,1-.62-.235.949.949,0,0,1-.21-.655,2.415,2.415,0,0,1,.385-1.125q.385-.675.975-1.665Zm-.51-1.56a.674.674,0,0,1,.2-.5.674.674,0,0,1,.5-.2.674.674,0,0,1,.495.2.674.674,0,0,1,.2.5.674.674,0,0,1-.2.495.674.674,0,0,1-.495.2.674.674,0,0,1-.5-.2A.674.674,0,0,1-31.076-5.16ZM-27.82-3.6q-.15.27-.43.685t-.56.855a8.184,8.184,0,0,0-.485.87,1.768,1.768,0,0,0-.205.73.526.526,0,0,0,.1.33.366.366,0,0,0,.31.13,1.08,1.08,0,0,0,.63-.23,3.038,3.038,0,0,0,.61-.6,4.933,4.933,0,0,0,.525-.84,5.677,5.677,0,0,0,.375-.95.735.735,0,0,1-.055-.2,1.626,1.626,0,0,1-.015-.22.756.756,0,0,1,.16-.47.513.513,0,0,1,.43-.21.631.631,0,0,1,.545.225.983.983,0,0,1,.165.6,1.894,1.894,0,0,1-.06.48.935.935,0,0,0,.365.24,1.15,1.15,0,0,0,.355.06.961.961,0,0,0,.57-.17,1.906,1.906,0,0,0,.41-.39l.09.06a1.6,1.6,0,0,1-.18.21,1.6,1.6,0,0,1-.245.2,1.443,1.443,0,0,1-.3.15.989.989,0,0,1-.35.06,1.153,1.153,0,0,1-.75-.28,2.716,2.716,0,0,1-.485.965,3.554,3.554,0,0,1-.805.76,4.022,4.022,0,0,1-1,.5A3.323,3.323,0,0,1-29.16.12,1.254,1.254,0,0,1-30.1-.21a1.213,1.213,0,0,1-.325-.89,1.6,1.6,0,0,1,.09-.515,3.826,3.826,0,0,1,.25-.565q.16-.3.375-.645t.465-.735Zm8.086,1.03q-.23.33-.515.665t-.645.685a6.014,6.014,0,0,1-1.34,1,3.08,3.08,0,0,1-1.45.34,1.533,1.533,0,0,1-1.05-.32,1.179,1.179,0,0,1-.36-.93,1.827,1.827,0,0,1,.3-1,3.2,3.2,0,0,1,.755-.82,4.032,4.032,0,0,1,.99-.56,2.78,2.78,0,0,1,1.015-.21,1.764,1.764,0,0,1,.79.155.525.525,0,0,1,.31.505.756.756,0,0,1-.34.61A3.365,3.365,0,0,1-22.079-2a7.079,7.079,0,0,1-.935.3q-.47.115-.74.175-.02.1-.03.2t-.01.2a1.588,1.588,0,0,0,.04.355.82.82,0,0,0,.135.305.7.7,0,0,0,.25.21.834.834,0,0,0,.385.08,1.9,1.9,0,0,0,1.01-.345,7.4,7.4,0,0,0,1.09-.865,8.374,8.374,0,0,0,.615-.66q.265-.32.445-.58Zm-2.2-.75a.247.247,0,0,0-.28-.28.747.747,0,0,0-.475.225,2.88,2.88,0,0,0-.47.54,5.059,5.059,0,0,0-.375.645,2.253,2.253,0,0,0-.2.55,2.74,2.74,0,0,0,.755-.275,2.618,2.618,0,0,0,.57-.415,1.665,1.665,0,0,0,.355-.49A1.192,1.192,0,0,0-21.934-3.32ZM-21.688,0l2.07-3.54,1.42-.06q-.72,1-1.38,2.04l.02.02q.26-.33.58-.71a7.53,7.53,0,0,1,.675-.705,4.327,4.327,0,0,1,.73-.545,1.463,1.463,0,0,1,.745-.22,1.015,1.015,0,0,1,.635.2.7.7,0,0,1,.255.595,1.344,1.344,0,0,1-.2.68,7.391,7.391,0,0,1-.455.685q-.25.335-.455.64a1,1,0,0,0-.2.535.288.288,0,0,0,.055.175.2.2,0,0,0,.175.075.883.883,0,0,0,.5-.2,5.048,5.048,0,0,0,.58-.505q.23-.23.46-.5t.43-.51q.2-.245.36-.45t.25-.325l.09.05q-.34.45-.725.93t-.775.88a4.179,4.179,0,0,1-.8.655,1.49,1.49,0,0,1-.785.235.836.836,0,0,1-.675-.265,1.022,1.022,0,0,1-.225-.685,1.311,1.311,0,0,1,.195-.685,4.7,4.7,0,0,1,.435-.61q.24-.285.435-.525a.733.733,0,0,0,.195-.45q0-.28-.27-.28a.816.816,0,0,0-.44.185,4.5,4.5,0,0,0-.56.485q-.3.3-.61.67t-.585.74q-.275.37-.48.7a5.844,5.844,0,0,0-.305.54ZM-8.012-7.06q-.84,1.4-1.445,2.4t-1.025,1.71q-.42.705-.67,1.15t-.385.715a3.035,3.035,0,0,0-.18.415.876.876,0,0,0-.045.255.287.287,0,0,0,.065.2.257.257,0,0,0,.2.075,1.011,1.011,0,0,0,.48-.2,3.872,3.872,0,0,0,.63-.52,9.088,9.088,0,0,0,.865-.99q.365-.49.565-.77l.09.05q-.23.33-.625.855A9.332,9.332,0,0,1-10.412-.67a3.422,3.422,0,0,1-.79.605,1.6,1.6,0,0,1-.74.185.8.8,0,0,1-.615-.24.843.843,0,0,1-.225-.6.673.673,0,0,1,.05-.24l-.02-.02a3.853,3.853,0,0,1-.805.775A1.8,1.8,0,0,1-14.632.12a.815.815,0,0,1-.7-.31,1.191,1.191,0,0,1-.23-.73,2.2,2.2,0,0,1,.285-1.09,3.2,3.2,0,0,1,.735-.89,3.606,3.606,0,0,1,1-.6,2.957,2.957,0,0,1,1.1-.22.724.724,0,0,1,.52.19.954.954,0,0,1,.27.48l2.2-3.91Zm-3.94,3.97a.707.707,0,0,0-.085-.37.338.338,0,0,0-.315-.14.983.983,0,0,0-.635.3,3.762,3.762,0,0,0-.62.73,4.763,4.763,0,0,0-.47.9,2.332,2.332,0,0,0-.185.825.772.772,0,0,0,.08.375.283.283,0,0,0,.27.145.875.875,0,0,0,.475-.15,2.232,2.232,0,0,0,.455-.395,3.551,3.551,0,0,0,.405-.555,6.462,6.462,0,0,0,.325-.615,4.125,4.125,0,0,0,.22-.585A1.77,1.77,0,0,0-11.952-3.09Zm8.486.52q-.04.04-.13.135a1.492,1.492,0,0,1-.225.19,1.769,1.769,0,0,1-.305.17A.906.906,0,0,1-4.5-2a.875.875,0,0,1-.465-.125,1.468,1.468,0,0,1-.375-.335h-.02a2.113,2.113,0,0,1-.245.99,2.827,2.827,0,0,1-.65.825,3.135,3.135,0,0,1-.925.56A2.919,2.919,0,0,1-8.256.12,2.9,2.9,0,0,1-8.9.05a1.628,1.628,0,0,1-.55-.23A1.2,1.2,0,0,1-9.831-.6a1.3,1.3,0,0,1-.145-.64,2,2,0,0,1,.27-1.03,2.7,2.7,0,0,1,.695-.785,3.123,3.123,0,0,1,.96-.495A3.47,3.47,0,0,1-7-3.72a1.813,1.813,0,0,1,.71.12,1.716,1.716,0,0,1,.475.3,1.89,1.89,0,0,1,.33.385q.135.21.27.385a1.476,1.476,0,0,0,.3.3.687.687,0,0,0,.415.12.983.983,0,0,0,.475-.135,1.813,1.813,0,0,0,.475-.395ZM-6.836-3.6a.866.866,0,0,0-.485.165,2.444,2.444,0,0,0-.475.43,4.186,4.186,0,0,0-.43.6,6.2,6.2,0,0,0-.35.675,4.5,4.5,0,0,0-.235.66A2.221,2.221,0,0,0-8.9-.51a.6.6,0,0,0,.1.37A.347.347,0,0,0-8.5,0a.866.866,0,0,0,.485-.165A2.444,2.444,0,0,0-7.536-.6a4.186,4.186,0,0,0,.43-.6,6.2,6.2,0,0,0,.35-.675,4.423,4.423,0,0,0,.235-.665,2.252,2.252,0,0,0,.085-.555.6.6,0,0,0-.105-.37A.347.347,0,0,0-6.836-3.6ZM-5.38,0l2.02-3.56,1.44-.04L-3.45-1.34l.02.02A9.71,9.71,0,0,1-2.405-2.59a2.788,2.788,0,0,1,.835-.63,2.628,2.628,0,0,1,.25-.27.807.807,0,0,1,.285-.16,2.023,2.023,0,0,1,.47-.085q.295-.025.8-.045A3.273,3.273,0,0,0,0-3.51a2.714,2.714,0,0,0-.22.32,2.088,2.088,0,0,0-.165.35,1.027,1.027,0,0,0-.065.35.761.761,0,0,0,.1.39.359.359,0,0,0,.335.18.749.749,0,0,0,.3-.065,1.433,1.433,0,0,0,.29-.17A2.192,2.192,0,0,0,.845-2.39q.125-.13.225-.25l.07.06q-.07.08-.2.235a1.766,1.766,0,0,1-.345.305,2.31,2.31,0,0,1-.53.265A2.207,2.207,0,0,1-.69-1.66a1.244,1.244,0,0,1-.44-.075,1.056,1.056,0,0,1-.335-.2.86.86,0,0,1-.21-.28.791.791,0,0,1-.075-.34,1.125,1.125,0,0,1,.08-.47v-.02a2.746,2.746,0,0,0-.655.53,8.951,8.951,0,0,0-.69.815q-.335.445-.61.89A7.584,7.584,0,0,0-4.04-.06Z" transform="translate(8315 -1035)" fill="#d23533"/>
  </g>
</svg>
